<?xml version="1.0" encoding="UTF-8"?>
<svg width="302px" height="253px" viewBox="0 0 302 253" version="1.1" xmlns="http://www.w3.org/2000/svg" xmlns:xlink="http://www.w3.org/1999/xlink">
    <title>Rabbit Ears</title>
    <g id="Page-1" stroke="none" stroke-width="1" fill="none" fill-rule="evenodd">
        <g id="Mocks-+-WIP" transform="translate(-327.000000, -252.000000)" fill="#164E63">
            <g id="Rabbit-Ears" transform="translate(327.000000, 252.000000)">
                <path d="M285.996054,3.00846844 C287.383118,0.606003141 290.442004,-0.207276678 292.837587,1.17581377 L292.837587,1.17581377 L298.884845,4.66720019 C301.282592,6.05153977 302.101377,9.11323076 300.718486,11.5084684 L300.718486,11.5084684 L224.075794,144.259732 C259.016113,167.786674 282,207.709248 282,253 L282,253 L20,253 C20,207.709248 42.9838872,167.786674 77.9242064,144.259732 L1.281514,11.5084684 C-0.105549985,9.10600314 0.719571807,6.05029064 3.11515474,4.66720019 L3.11515474,4.66720019 L9.1624134,1.17581377 C11.5601599,-0.208525807 14.6210547,0.613230764 16.0039459,3.00846844 L16.0039459,3.00846844 L92.6125819,135.699248 C110.19245,126.931779 130.020285,122 151,122 C171.979715,122 191.80755,126.931779 209.387418,135.699248 Z" id="Set-box"></path>
            </g>
        </g>
    </g>
</svg>