<?xml version="1.0" encoding="UTF-8"?>
<svg width="1778px" height="1673px" viewBox="0 0 1778 1673" version="1.1" xmlns="http://www.w3.org/2000/svg" xmlns:xlink="http://www.w3.org/1999/xlink">
    <title>Set-box</title>
    <g id="Page-1" stroke="none" stroke-width="1" fill="none" fill-rule="evenodd">
        <g id="Mocks-+-WIP" transform="translate(-48.000000, -621.000000)" fill="#164E63">
            <g id="Page-1" transform="translate(48.000000, 619.000000)">
                <path d="M1778,1655.00556 C1778,1666.04818 1769.04277,1675 1757.99722,1675 L1658.00278,1675 C1646.95555,1675 1633.9619,1667.00678 1628.97723,1657.13985 L1501.599,1405 L276.401,1405 L149.022774,1657.13985 C144.097438,1666.88932 131.352687,1674.80942 120.392572,1674.99661 L119.997217,1675 L20.0027826,1675 C8.95722533,1675 0,1666.04818 0,1655.00556 L0,1655.00556 L0,349.99893 C0,338.950551 8.95696558,330 20.0059426,330 L20.0059426,330 L761.014952,330.000325 C761.665834,286.503516 783.516106,248.144394 816.692756,224.795969 L694.389097,12.9592354 C693.003107,10.5586305 693.830788,7.5073507 696.226371,6.12426025 L696.226371,6.12426025 L702.273629,2.63287383 C704.671376,1.24853425 707.730644,2.0674733 709.111528,4.45923537 L709.111528,4.45923537 L831.205032,215.931252 C849.373834,206.395127 870.056867,201 892,201 C911.47201,201 929.95175,205.248406 946.562869,212.868864 L1066.88847,4.45923537 C1068.27446,2.05863051 1071.33079,1.24978338 1073.72637,2.63287383 L1073.72637,2.63287383 L1079.77363,6.12426025 C1082.17138,7.50859983 1082.99179,10.5674733 1081.6109,12.9592354 L1081.6109,12.9592354 L961.526314,220.952058 C998.451224,244.119267 1023,285.192795 1023,332 L1022.983,330 L1757.99406,330 C1768.92504,330 1777.81311,338.76826 1777.99709,349.654459 L1778,349.99893 L1778,1655.00556 Z M1679.00698,418 L94.9930238,418 C90.5785986,418 87,421.57924 87,426.003568 L87,1309.99643 C87,1314.41668 90.5860501,1318 94.9930238,1318 L1679.00698,1318 C1683.4214,1318 1687,1314.42076 1687,1309.99643 L1687,426.003568 C1687,421.58332 1683.41395,418 1679.00698,418 Z" id="Set-box"></path>
            </g>
        </g>
    </g>
</svg>