<?xml version="1.0" encoding="UTF-8"?>
<svg width="1400px" height="1400px" viewBox="0 0 1400 1400" version="1.1" xmlns="http://www.w3.org/2000/svg" xmlns:xlink="http://www.w3.org/1999/xlink">
    <title>iTunes Show Cover</title>
    <defs>
        <linearGradient x1="0%" y1="0%" x2="100%" y2="100%" id="linearGradient-1">
            <stop stop-color="#164E63" offset="0%"></stop>
            <stop stop-color="#285486" offset="100%"></stop>
        </linearGradient>
    </defs>
    <g id="iTunes-Show-Cover" stroke="none" stroke-width="1" fill="none" fill-rule="evenodd">
        <g id="Background">
            <rect id="Rectangle-1" fill="url(#linearGradient-1)" x="0" y="0" width="1400" height="1400"></rect>
            <rect id="Rectangle-3" fill="#FFFFFF" x="19.25" y="92.75" width="1365" height="1295"></rect>
        </g>
        <path d="M772.728827,1197.72376 C780.656202,1197.72376 787.81041,1198.90442 794.191666,1201.26576 C800.572922,1203.62711 805.998314,1206.9723 810.468005,1211.30143 C814.937695,1215.63057 818.367217,1220.83107 820.756674,1226.9031 C823.146131,1232.97514 824.340842,1239.72174 824.340842,1247.14311 C824.340842,1254.56448 823.146131,1261.31108 820.756674,1267.38312 C818.367217,1273.45515 814.937695,1278.65565 810.468005,1282.98479 C805.998314,1287.31392 800.572922,1290.65911 794.191666,1293.02046 C787.81041,1295.3818 780.656202,1296.56246 772.728827,1296.56246 C764.801451,1296.56246 757.633188,1295.3818 751.22382,1293.02046 C744.814453,1290.65911 739.375006,1287.31392 734.905316,1282.98479 C730.435625,1278.65565 726.992047,1273.45515 724.574479,1267.38312 C722.156911,1261.31108 720.948145,1254.56448 720.948145,1247.14311 C720.948145,1239.72174 722.156911,1232.97514 724.574479,1226.9031 C726.992047,1220.83107 730.435625,1215.63057 734.905316,1211.30143 C739.375006,1206.9723 744.814453,1203.62711 751.22382,1201.26576 C757.633188,1198.90442 764.801451,1197.72376 772.728827,1197.72376 Z M369.531041,1197.72376 C377.458416,1197.72376 384.542347,1198.86225 390.783047,1201.13926 C397.023747,1203.41627 402.308584,1206.67713 406.637718,1210.92193 C410.966852,1215.16673 414.269876,1220.35318 416.546888,1226.48144 C418.8239,1232.60969 419.962389,1239.49685 419.962389,1247.14311 L419.962389,1250.43211 L336.388031,1250.43211 L336.388031,1251.10678 C336.388031,1255.49213 337.18919,1259.49793 338.791532,1263.12428 C340.393874,1266.75063 342.656796,1269.88499 345.580367,1272.52745 C348.503938,1275.16991 352.003737,1277.222 356.07987,1278.68379 C360.156003,1280.14557 364.639682,1280.87645 369.531041,1280.87645 C376.952413,1280.87645 383.22113,1279.41469 388.33738,1276.49112 C393.453629,1273.56755 396.967484,1269.5477 398.879049,1264.43145 L418.444389,1264.43145 C416.813936,1269.43525 414.494791,1273.93299 411.486887,1277.92478 C408.478982,1281.91658 404.89485,1285.28988 400.734383,1288.04479 C396.573917,1290.79969 391.865351,1292.908 386.608546,1294.36979 C381.35174,1295.83158 375.659295,1296.56246 369.531041,1296.56246 C361.772333,1296.56246 354.758679,1295.3818 348.489868,1293.02046 C342.221057,1290.65911 336.879998,1287.31392 332.46653,1282.98479 C328.053062,1278.65565 324.665706,1273.45515 322.30436,1267.38312 C319.943014,1261.31108 318.762359,1254.56448 318.762359,1247.14311 C318.762359,1239.66551 319.95707,1232.8908 322.346527,1226.81877 C324.735984,1220.74674 328.137395,1215.56029 332.550863,1211.25927 C336.964331,1206.95824 342.30539,1203.62711 348.574201,1201.26576 C354.843012,1198.90442 361.828556,1197.72376 369.531041,1197.72376 Z M126.397969,1177.39942 L126.397969,1200.8441 L148.999309,1200.8441 L148.999309,1215.34943 L126.397969,1215.34943 L126.397969,1270.50345 C126.397969,1274.3828 127.255349,1277.16578 128.970136,1278.85245 C130.684923,1280.53913 133.622506,1281.38245 137.782972,1281.38245 C141.043878,1281.38245 144.78262,1280.84835 148.999309,1279.78012 L148.999309,1294.96012 C146.13196,1295.4099 143.447375,1295.7894 140.945473,1296.09862 C138.443571,1296.40785 136.011984,1296.56246 133.650638,1296.56246 C125.329705,1296.56246 119.243708,1294.83364 115.392466,1291.37596 C111.541223,1287.91827 109.615631,1282.56316 109.615631,1275.31045 L109.615631,1215.34943 L93.5922925,1215.34943 L93.5922925,1200.8441 L109.615631,1200.8441 L109.615631,1177.39942 L126.397969,1177.39942 Z M620.422782,1197.72376 C634.253522,1197.72376 644.738864,1200.35212 651.879124,1205.60893 C659.019384,1210.86574 662.589461,1218.32916 662.589461,1227.99944 L662.589461,1228.6741 L646.313123,1228.6741 C645.694675,1222.88318 643.206866,1218.63845 638.84962,1215.93977 C634.492375,1213.24109 628.069049,1211.89177 619.579448,1211.89177 C611.652073,1211.89177 605.692575,1212.95998 601.700776,1215.09643 C597.708977,1217.23289 595.713108,1220.32508 595.713108,1224.3731 C595.713108,1226.56578 596.13477,1228.36487 596.978108,1229.77044 C597.821446,1231.176 599.100489,1232.3426 600.815276,1233.27027 C602.530063,1234.19794 604.694597,1234.95694 607.308944,1235.54727 C609.923292,1236.13761 612.973318,1236.71388 616.459114,1237.27611 L636.530453,1240.56511 C641.646702,1241.40845 646.060104,1242.4626 649.77079,1243.72761 C653.481477,1244.99261 656.545558,1246.6371 658.963126,1248.66111 C661.380695,1250.68512 663.165733,1253.15887 664.318295,1256.08245 C665.470856,1259.00602 666.047128,1262.54798 666.047128,1266.70845 C666.047128,1271.43114 665.063249,1275.63371 663.095461,1279.31629 C661.127673,1282.99886 658.204146,1286.11916 654.324792,1288.67729 C650.445438,1291.23541 645.638484,1293.18912 639.903787,1294.53846 C634.16909,1295.8878 627.506822,1296.56246 619.916782,1296.56246 C605.580039,1296.56246 594.687089,1293.83571 587.237605,1288.38212 C579.788121,1282.92854 575.529329,1274.55151 574.461101,1263.25078 L592.845774,1263.25078 C593.632889,1269.21037 596.317474,1273.77838 600.899609,1276.95495 C605.481745,1280.13152 611.820739,1281.71979 619.916782,1281.71979 C629.418387,1281.71979 636.600707,1280.44074 641.463955,1277.88262 C646.327203,1275.32449 648.75879,1271.93714 648.75879,1267.72045 C648.75879,1265.97755 648.435515,1264.48768 647.788956,1263.25078 C647.142397,1262.01389 646.130407,1260.95973 644.752956,1260.08828 C643.375504,1259.21683 641.632632,1258.48595 639.524287,1257.89561 C637.415943,1257.30528 634.900023,1256.78523 631.976452,1256.33545 L611.314779,1252.70911 C605.917417,1251.80955 601.194796,1250.76945 597.146775,1249.58878 C593.098753,1248.4081 589.711397,1246.87606 586.984605,1244.99261 C584.257813,1243.10915 582.219777,1240.74784 580.870437,1237.90861 C579.521096,1235.06937 578.846436,1231.54146 578.846436,1227.32477 C578.846436,1217.59827 582.304069,1210.23323 589.219439,1205.22943 C596.134809,1200.22563 606.535819,1197.72376 620.422782,1197.72376 Z M210.140994,1197.72376 C218.068369,1197.72376 225.1523,1198.86225 231.393,1201.13926 C237.6337,1203.41627 242.918537,1206.67713 247.247671,1210.92193 C251.576805,1215.16673 254.879829,1220.35318 257.156841,1226.48144 C259.433853,1232.60969 260.572342,1239.49685 260.572342,1247.14311 L260.572342,1250.43211 L176.997984,1250.43211 L176.997984,1251.10678 C176.997984,1255.49213 177.799143,1259.49793 179.401485,1263.12428 C181.003826,1266.75063 183.266749,1269.88499 186.19032,1272.52745 C189.113891,1275.16991 192.61369,1277.222 196.689823,1278.68379 C200.765956,1280.14557 205.249634,1280.87645 210.140994,1280.87645 C217.562366,1280.87645 223.831083,1279.41469 228.947333,1276.49112 C234.063582,1273.56755 237.577437,1269.5477 239.489002,1264.43145 L259.054341,1264.43145 C257.423888,1269.43525 255.104744,1273.93299 252.096839,1277.92478 C249.088935,1281.91658 245.504803,1285.28988 241.344336,1288.04479 C237.18387,1290.79969 232.475304,1292.908 227.218499,1294.36979 C221.961693,1295.83158 216.269248,1296.56246 210.140994,1296.56246 C202.382286,1296.56246 195.368632,1295.3818 189.099821,1293.02046 C182.83101,1290.65911 177.489951,1287.31392 173.076483,1282.98479 C168.663015,1278.65565 165.275659,1273.45515 162.914313,1267.38312 C160.552967,1261.31108 159.372312,1254.56448 159.372312,1247.14311 C159.372312,1239.66551 160.567023,1232.8908 162.95648,1226.81877 C165.345937,1220.74674 168.747348,1215.56029 173.160816,1211.25927 C177.574284,1206.95824 182.915343,1203.62711 189.184154,1201.26576 C195.452965,1198.90442 202.438508,1197.72376 210.140994,1197.72376 Z M445.684063,1200.8441 L477.140406,1278.76812 L507.837748,1200.8441 L527.403087,1200.8441 L486.248409,1293.27346 L467.610736,1293.27346 L425.697057,1200.8441 L445.684063,1200.8441 Z M555.823429,1200.8441 L555.823429,1293.27346 L539.125424,1293.27346 L539.125424,1200.8441 L555.823429,1200.8441 Z M298.18502,1168.54442 L298.18502,1293.27346 L281.487015,1293.27346 L281.487015,1168.54442 L298.18502,1168.54442 Z M701.382806,1200.8441 L701.382806,1293.27346 L684.684801,1293.27346 L684.684801,1200.8441 L701.382806,1200.8441 Z M897.62653,1198.48276 C903.754785,1198.48276 909.152066,1199.3542 913.818535,1201.0971 C918.485004,1202.83999 922.336189,1205.48241 925.372205,1209.02443 C927.058881,1210.99222 928.38009,1213.07242 929.335873,1215.2651 C930.291656,1217.45778 931.022538,1219.81909 931.52854,1222.3491 C932.034543,1224.87912 932.343762,1227.61992 932.456207,1230.5716 C932.568652,1233.52329 932.624874,1236.74198 932.624874,1240.22777 L932.624874,1293.27346 L915.926869,1293.27346 L915.926869,1239.55311 C915.926869,1234.94286 915.547373,1230.93707 914.788369,1227.5356 C914.029365,1224.13414 912.792488,1221.33711 911.077701,1219.14443 C909.362914,1216.95176 907.085936,1215.32133 904.246699,1214.2531 C901.407462,1213.18487 897.935773,1212.65077 893.831529,1212.65077 C888.883947,1212.65077 884.315936,1213.43787 880.127358,1215.0121 C875.938781,1216.58633 872.326538,1218.8352 869.290522,1221.75877 C866.254506,1224.68234 863.87914,1228.22431 862.164353,1232.38477 C860.449566,1236.54524 859.592186,1241.18353 859.592186,1246.29978 L859.592186,1293.27346 L842.809847,1293.27346 L842.809847,1200.8441 L859.423519,1200.8441 L859.423519,1216.7831 C864.202433,1210.99218 869.684047,1206.49445 875.868524,1203.28976 C882.053001,1200.08508 889.305597,1198.48276 897.62653,1198.48276 Z M968.648175,1272.76297 C970.230652,1272.76297 971.653175,1272.99865 972.915789,1273.47003 C974.178403,1273.9414 975.251609,1274.61058 976.135439,1275.47757 C977.019269,1276.34457 977.70107,1277.40515 978.180863,1278.65934 C978.660657,1279.91354 978.90055,1281.32344 978.90055,1282.88908 C978.90055,1284.45472 978.660657,1285.86041 978.180863,1287.10619 C977.70107,1288.35197 977.019269,1289.41255 976.135439,1290.28796 C975.251609,1291.16337 974.178403,1291.83255 972.915789,1292.29551 C971.653175,1292.75846 970.230652,1292.98994 968.648175,1292.98994 C967.065699,1292.98994 965.643175,1292.75846 964.380561,1292.29551 C963.117947,1291.83255 962.040533,1291.16337 961.148286,1290.28796 C960.256039,1289.41255 959.570029,1288.35197 959.090235,1287.10619 C958.610442,1285.86041 958.370549,1284.45472 958.370549,1282.88908 C958.370549,1281.32344 958.610442,1279.91354 959.090235,1278.65934 C959.570029,1277.40515 960.256039,1276.34457 961.148286,1275.47757 C962.040533,1274.61058 963.117947,1273.9414 964.380561,1273.47003 C965.643175,1272.99865 967.065699,1272.76297 968.648175,1272.76297 Z M772.728827,1213.32543 C767.44391,1213.32543 762.693178,1214.11254 758.476489,1215.68677 C754.2598,1217.261 750.661613,1219.49581 747.681819,1222.39127 C744.702026,1225.28673 742.410992,1228.82869 740.808651,1233.01727 C739.206309,1237.20585 738.40515,1241.91441 738.40515,1247.14311 C738.40515,1252.3718 739.206309,1257.06631 740.808651,1261.22678 C742.410992,1265.38725 744.702026,1268.92921 747.681819,1271.85278 C750.661613,1274.77635 754.2598,1277.01117 758.476489,1278.55729 C762.693178,1280.1034 767.44391,1280.87645 772.728827,1280.87645 C778.013744,1280.87645 782.764475,1280.1034 786.981164,1278.55729 C791.197853,1277.01117 794.781985,1274.77635 797.733667,1271.85278 C800.68535,1268.92921 802.962328,1265.38725 804.564669,1261.22678 C806.167011,1257.06631 806.96817,1252.3718 806.96817,1247.14311 C806.96817,1241.91441 806.167011,1237.20585 804.564669,1233.01727 C802.962328,1228.82869 800.68535,1225.28673 797.733667,1222.39127 C794.781985,1219.49581 791.197853,1217.261 786.981164,1215.68677 C782.764475,1214.11254 778.013744,1213.32543 772.728827,1213.32543 Z M210.140994,1213.32543 C205.755637,1213.32543 201.721732,1213.9017 198.039157,1215.05427 C194.356582,1216.20683 191.095724,1217.86537 188.256487,1220.02993 C185.41725,1222.1945 183.08405,1224.83692 181.256818,1227.95727 C179.429587,1231.07762 178.178654,1234.60553 177.503984,1238.54111 L242.609337,1238.54111 C241.934666,1234.66175 240.697789,1231.16195 238.898669,1228.0416 C237.099548,1224.92125 234.808515,1222.26478 232.0255,1220.0721 C229.242485,1217.87942 226.009739,1216.20683 222.327164,1215.05427 C218.644589,1213.9017 214.582573,1213.32543 210.140994,1213.32543 Z M369.531041,1213.32543 C365.145684,1213.32543 361.111779,1213.9017 357.429204,1215.05427 C353.746629,1216.20683 350.485772,1217.86537 347.646534,1220.02993 C344.807297,1222.1945 342.474097,1224.83692 340.646866,1227.95727 C338.819634,1231.07762 337.568701,1234.60553 336.894031,1238.54111 L401.999384,1238.54111 C401.324714,1234.66175 400.087837,1231.16195 398.288716,1228.0416 C396.489595,1224.92125 394.198562,1222.26478 391.415547,1220.0721 C388.632533,1217.87942 385.399786,1216.20683 381.717211,1215.05427 C378.034636,1213.9017 373.97262,1213.32543 369.531041,1213.32543 Z M547.485208,1170.76379 C548.836441,1170.76379 550.051094,1170.96504 551.129206,1171.36753 C552.207317,1171.77003 553.123698,1172.34142 553.878375,1173.08172 C554.633053,1173.82202 555.215225,1174.72762 555.624907,1175.79855 C556.034589,1176.86947 556.239427,1178.07335 556.239427,1179.4102 C556.239427,1180.74706 556.034589,1181.94734 555.624907,1183.01108 C555.215225,1184.07481 554.633053,1184.98041 553.878375,1185.7279 C553.123698,1186.47539 552.207317,1187.04678 551.129206,1187.44209 C550.051094,1187.8374 548.836441,1188.03505 547.485208,1188.03505 C546.133975,1188.03505 544.919321,1187.8374 543.84121,1187.44209 C542.763099,1187.04678 541.843124,1186.47539 541.081259,1185.7279 C540.319394,1184.98041 539.733629,1184.07481 539.323947,1183.01108 C538.914264,1181.94734 538.709426,1180.74706 538.709426,1179.4102 C538.709426,1178.07335 538.914264,1176.86947 539.323947,1175.79855 C539.733629,1174.72762 540.319394,1173.82202 541.081259,1173.08172 C541.843124,1172.34142 542.763099,1171.77003 543.84121,1171.36753 C544.919321,1170.96504 546.133975,1170.76379 547.485208,1170.76379 Z M693.485208,1170.76379 C694.836441,1170.76379 696.051094,1170.96504 697.129206,1171.36753 C698.207317,1171.77003 699.123698,1172.34142 699.878375,1173.08172 C700.633053,1173.82202 701.215225,1174.72762 701.624907,1175.79855 C702.034589,1176.86947 702.239427,1178.07335 702.239427,1179.4102 C702.239427,1180.74706 702.034589,1181.94734 701.624907,1183.01108 C701.215225,1184.07481 700.633053,1184.98041 699.878375,1185.7279 C699.123698,1186.47539 698.207317,1187.04678 697.129206,1187.44209 C696.051094,1187.8374 694.836441,1188.03505 693.485208,1188.03505 C692.133975,1188.03505 690.919321,1187.8374 689.84121,1187.44209 C688.763099,1187.04678 687.843124,1186.47539 687.081259,1185.7279 C686.319394,1184.98041 685.733629,1184.07481 685.323947,1183.01108 C684.914264,1181.94734 684.709426,1180.74706 684.709426,1179.4102 C684.709426,1178.07335 684.914264,1176.86947 685.323947,1175.79855 C685.733629,1174.72762 686.319394,1173.82202 687.081259,1173.08172 C687.843124,1172.34142 688.763099,1171.77003 689.84121,1171.36753 C690.919321,1170.96504 692.133975,1170.76379 693.485208,1170.76379 Z M362.579705,1007.01793 C370.50708,1007.01793 377.591011,1008.15642 383.831711,1010.43343 C390.072411,1012.71044 395.357248,1015.9713 399.686382,1020.2161 C404.015516,1024.4609 407.31854,1029.64735 409.595552,1035.7756 C411.872564,1041.90386 413.011053,1048.79101 413.011053,1056.43728 L413.011053,1059.72628 L329.436695,1059.72628 L329.436695,1060.40094 C329.436695,1064.7863 330.237854,1068.79209 331.840195,1072.41845 C333.442537,1076.0448 335.70546,1079.17916 338.629031,1081.82162 C341.552602,1084.46407 345.052401,1086.51617 349.128534,1087.97795 C353.204667,1089.43974 357.688345,1090.17062 362.579705,1090.17062 C370.001077,1090.17062 376.269794,1088.70885 381.386043,1085.78528 C386.502293,1082.86171 390.016148,1078.84186 391.927713,1073.72561 L411.493052,1073.72561 C409.862599,1078.72942 407.543455,1083.22715 404.53555,1087.21895 C401.527645,1091.21075 397.943514,1094.58405 393.783047,1097.33895 C389.622581,1100.09386 384.914015,1102.20217 379.65721,1103.66396 C374.400404,1105.12574 368.707959,1105.85662 362.579705,1105.85662 C354.820997,1105.85662 347.807343,1104.67597 341.538532,1102.31462 C335.269721,1099.95328 329.928661,1096.60809 325.515194,1092.27895 C321.101726,1087.94982 317.71437,1082.74931 315.353024,1076.67728 C312.991678,1070.60525 311.811023,1063.85865 311.811023,1056.43728 C311.811023,1048.95968 313.005733,1042.18497 315.395191,1036.11294 C317.784648,1030.0409 321.186059,1024.85445 325.599527,1020.55343 C330.012995,1016.25241 335.354054,1012.92127 341.622865,1010.55993 C347.891676,1008.19858 354.877219,1007.01793 362.579705,1007.01793 Z M257.584673,1007.77693 C263.712928,1007.77693 269.110209,1008.64836 273.776678,1010.39126 C278.443147,1012.13416 282.294332,1014.77658 285.330348,1018.3186 C287.017024,1020.28639 288.338233,1022.36659 289.294016,1024.55927 C290.249799,1026.75194 290.980681,1029.11325 291.486684,1031.64327 C291.992686,1034.17328 292.301905,1036.91409 292.41435,1039.86577 C292.526795,1042.81745 292.583017,1046.03614 292.583017,1049.52194 L292.583017,1102.56762 L275.885012,1102.56762 L275.885012,1048.84727 C275.885012,1044.23703 275.505516,1040.23123 274.746512,1036.82977 C273.987508,1033.42831 272.750631,1030.63128 271.035844,1028.4386 C269.321057,1026.24592 267.044079,1024.61549 264.204842,1023.54727 C261.365605,1022.47904 257.893916,1021.94493 253.789672,1021.94493 C248.842091,1021.94493 244.274079,1022.73203 240.085502,1024.30627 C235.896924,1025.8805 232.284681,1028.12936 229.248665,1031.05293 C226.212649,1033.97651 223.837283,1037.51847 222.122496,1041.67894 C220.407709,1045.8394 219.550329,1050.47769 219.550329,1055.59394 L219.550329,1102.56762 L202.767991,1102.56762 L202.767991,1010.13826 L219.381662,1010.13826 L219.381662,1026.07727 C224.160576,1020.28635 229.64219,1015.78861 235.826667,1012.58393 C242.011144,1009.37925 249.263741,1007.77693 257.584673,1007.77693 Z M130.867637,977.838585 C133.566318,977.838585 136.16657,977.936973 138.668473,978.133752 C141.170375,978.330531 143.686295,978.710027 146.216308,979.272252 L146.216308,994.28359 C144.079852,993.83381 142.098038,993.524591 140.270806,993.355923 C138.443574,993.187256 136.742869,993.102923 135.168638,993.102923 C133.032182,993.102923 131.219033,993.285643 129.729137,993.65109 C128.23924,994.016536 127.044529,994.620919 126.144969,995.464257 C125.245409,996.307595 124.598859,997.432028 124.205302,998.837591 C123.811744,1000.24315 123.614968,1001.95792 123.614968,1003.98193 L123.614968,1010.13826 L146.216308,1010.13826 L146.216308,1024.6436 L123.614968,1024.6436 L123.614968,1102.56762 L106.83263,1102.56762 L106.83263,1024.6436 L90.640625,1024.6436 L90.640625,1010.13826 L106.83263,1010.13826 L106.83263,1000.52426 C106.83263,992.653106 108.744167,986.904439 112.567298,983.278087 C116.39043,979.651734 122.490481,977.838585 130.867637,977.838585 Z M177.33863,1009.84375 L177.33863,1102.27311 L160.640625,1102.27311 L160.640625,1009.84375 L177.33863,1009.84375 Z M362.579705,1022.6196 C358.194348,1022.6196 354.160443,1023.19587 350.477868,1024.34843 C346.795293,1025.50099 343.534435,1027.15953 340.695198,1029.3241 C337.855961,1031.48867 335.522761,1034.13109 333.695529,1037.25144 C331.868297,1040.37179 330.617365,1043.8997 329.942695,1047.83527 L395.048047,1047.83527 C394.373377,1043.95592 393.1365,1040.45612 391.33738,1037.33577 C389.538259,1034.21542 387.247226,1031.55895 384.464211,1029.36627 C381.681196,1027.17359 378.44845,1025.50099 374.765875,1024.34843 C371.0833,1023.19587 367.021284,1022.6196 362.579705,1022.6196 Z M169.416406,978.84375 C170.767639,978.84375 171.982293,979.044994 173.060404,979.447489 C174.138515,979.849984 175.054896,980.421374 175.809574,981.161678 C176.564252,981.901981 177.146423,982.80758 177.556105,983.878504 C177.965788,984.949428 178.170626,986.153301 178.170626,987.490159 C178.170626,988.827017 177.965788,990.027296 177.556105,991.091032 C177.146423,992.154769 176.564252,993.060368 175.809574,993.807859 C175.054896,994.555349 174.138515,995.12674 173.060404,995.522047 C171.982293,995.917355 170.767639,996.115005 169.416406,996.115005 C168.065174,996.115005 166.85052,995.917355 165.772409,995.522047 C164.694298,995.12674 163.774323,994.555349 163.012458,993.807859 C162.250593,993.060368 161.664828,992.154769 161.255145,991.091032 C160.845463,990.027296 160.640625,988.827017 160.640625,987.490159 C160.640625,986.153301 160.845463,984.949428 161.255145,983.878504 C161.664828,982.80758 162.250593,981.901981 163.012458,981.161678 C163.774323,980.421374 164.694298,979.849984 165.772409,979.447489 C166.85052,979.044994 168.065174,978.84375 169.416406,978.84375 Z M152.962977,783.84375 C160.946575,783.84375 168.01645,784.715186 174.172816,786.458084 C180.329182,788.200982 185.501577,790.745013 189.690154,794.090253 C193.878732,797.435493 197.069312,801.567786 199.26199,806.487257 C201.454669,811.406727 202.607213,817.04295 202.719658,823.396095 L185.093986,823.396095 C184.475539,815.356275 181.453623,809.467054 176.02815,805.728256 C170.602677,801.989459 162.464589,800.120088 151.613643,800.120088 C140.706474,800.120088 132.540276,801.848905 127.114802,805.30659 C121.689329,808.764275 118.976633,813.641505 118.976633,819.938427 C118.976633,822.468441 119.426407,824.647031 120.325967,826.474263 C121.225527,828.301495 122.588903,829.861646 124.416135,831.154764 C126.243367,832.447882 128.5344,833.544205 131.289304,834.443765 C134.044207,835.343325 137.305064,836.15854 141.071973,836.889432 L168.480315,842.286767 C175.05835,843.523663 180.778905,844.999482 185.642153,846.714269 C190.505401,848.429055 194.525251,850.59359 197.701823,853.207937 C200.878396,855.822284 203.253762,858.984754 204.827992,862.69544 C206.402223,866.406126 207.189326,870.87575 207.189326,876.104444 C207.189326,882.176476 206.022726,887.615923 203.689492,892.422949 C201.356257,897.229974 197.898624,901.320101 193.316489,904.693452 C188.734353,908.066804 183.084075,910.653001 176.365484,912.452121 C169.646893,914.251242 161.902357,915.150789 153.131643,915.150789 C134.465767,915.150789 120.396292,911.34177 110.922798,903.723619 C101.449303,896.105467 96.5720726,884.762744 96.29096,869.695109 L115.012966,869.695109 C115.350301,879.646495 118.723601,886.969368 125.132969,891.663949 C131.542336,896.358529 141.212464,898.705784 154.143644,898.705784 C165.500593,898.705784 174.102509,896.850469 179.949651,893.139782 C185.796793,889.429096 188.720321,884.256702 188.720321,877.622444 C188.720321,875.036208 188.298658,872.787341 187.45532,870.875776 C186.611982,868.96421 185.304829,867.305671 183.533819,865.900108 C181.76281,864.494545 179.527998,863.327945 176.829317,862.400273 C174.130636,861.472602 170.954111,860.699554 167.299648,860.081106 L136.433639,854.515104 C124.233352,852.378648 115.167606,848.696129 109.23613,843.467434 C103.304655,838.23874 100.338961,830.929922 100.338961,821.540761 C100.338961,815.637397 101.463395,810.366614 103.712296,805.728256 C105.961196,801.089899 109.292331,797.140326 113.705798,793.87942 C118.119266,790.618513 123.614935,788.130704 130.19297,786.415917 C136.771005,784.701131 144.360931,783.84375 152.962977,783.84375 Z M273.728346,816.312093 C281.655721,816.312093 288.809929,817.492748 295.191185,819.854094 C301.572442,822.21544 306.997833,825.56063 311.467524,829.889764 C315.937214,834.218898 319.366736,839.419403 321.756193,845.491435 C324.14565,851.563467 325.340361,858.310068 325.340361,865.731441 C325.340361,873.152814 324.14565,879.899415 321.756193,885.971447 C319.366736,892.043479 315.937214,897.243984 311.467524,901.573118 C306.997833,905.902252 301.572442,909.247442 295.191185,911.608788 C288.809929,913.970134 281.655721,915.150789 273.728346,915.150789 C265.80097,915.150789 258.632707,913.970134 252.223339,911.608788 C245.813972,909.247442 240.374525,905.902252 235.904835,901.573118 C231.435144,897.243984 227.991567,892.043479 225.573998,885.971447 C223.15643,879.899415 221.947664,873.152814 221.947664,865.731441 C221.947664,858.310068 223.15643,851.563467 225.573998,845.491435 C227.991567,839.419403 231.435144,834.218898 235.904835,829.889764 C240.374525,825.56063 245.813972,822.21544 252.223339,819.854094 C258.632707,817.492748 265.80097,816.312093 273.728346,816.312093 Z M575.979102,816.312093 C583.906477,816.312093 590.990408,817.450582 597.231108,819.727594 C603.471808,822.004606 608.756645,825.265463 613.085779,829.510264 C617.414914,833.755064 620.717937,838.941513 622.994949,845.069768 C625.271961,851.198023 626.41045,858.085178 626.41045,865.731441 L626.41045,869.020442 L542.836092,869.020442 L542.836092,869.695109 C542.836092,874.080465 543.637251,878.08626 545.239593,881.712612 C546.841935,885.338965 549.104857,888.473323 552.028428,891.115782 C554.951999,893.75824 558.451799,895.810331 562.527931,897.272117 C566.604064,898.733902 571.087743,899.464784 575.979102,899.464784 C583.400474,899.464784 589.669191,898.003021 594.785441,895.07945 C599.90169,892.155879 603.415545,888.136029 605.327111,883.019779 L624.89245,883.019779 C623.261997,888.023584 620.942852,892.521318 617.934948,896.513117 C614.927043,900.504916 611.342911,903.878216 607.182444,906.63312 C603.021978,909.388023 598.313413,911.496336 593.056607,912.958122 C587.799801,914.419907 582.107357,915.150789 575.979102,915.150789 C568.220394,915.150789 561.20674,913.970134 554.937929,911.608788 C548.669118,909.247442 543.328059,905.902252 538.914591,901.573118 C534.501123,897.243984 531.113767,892.043479 528.752421,885.971447 C526.391075,879.899415 525.21042,873.152814 525.21042,865.731441 C525.21042,858.253846 526.405131,851.479134 528.794588,845.407102 C531.184045,839.335069 534.585456,834.14862 538.998924,829.847597 C543.412392,825.546574 548.753451,822.21544 555.022262,819.854094 C561.291073,817.492748 568.276617,816.312093 575.979102,816.312093 Z M471.152738,817.071093 C477.280992,817.071093 482.692329,817.942529 487.386909,819.685427 C492.081489,821.428325 495.94673,824.070744 498.982746,827.612763 C500.669421,829.580551 501.990631,831.660753 502.946414,833.853431 C503.902196,836.04611 504.619023,838.40742 505.096914,840.937434 C505.574806,843.467447 505.884025,846.222309 506.024581,849.202103 C506.165137,852.181896 506.235415,855.386532 506.235415,858.816106 L506.235415,911.861788 L489.453076,911.861788 L489.453076,858.141439 C489.453076,853.531192 489.07358,849.525398 488.314576,846.123935 C487.555572,842.722473 486.318695,839.925444 484.603908,837.732766 C482.889121,835.540088 480.612143,833.909659 477.772906,832.841431 C474.933669,831.773203 471.46198,831.239097 467.357736,831.239097 C462.410155,831.239097 457.842143,832.026201 453.653566,833.600431 C449.464988,835.174662 445.852745,837.423529 442.816729,840.3471 C439.780713,843.270671 437.405347,846.812637 435.69056,850.973103 C433.975774,855.13357 433.118393,859.771858 433.118393,864.888107 L433.118393,911.861788 L416.926388,911.861788 L416.926388,858.141439 C416.926388,853.531192 416.546892,849.525398 415.787888,846.123935 C415.028884,842.722473 413.792007,839.925444 412.07722,837.732766 C410.362433,835.540088 408.085455,833.909659 405.246218,832.841431 C402.406981,831.773203 398.935292,831.239097 394.831048,831.239097 C389.883467,831.239097 385.315455,832.026201 381.126878,833.600431 C376.9383,835.174662 373.326057,837.423529 370.290041,840.3471 C367.254025,843.270671 364.878659,846.812637 363.163872,850.973103 C361.449085,855.13357 360.591705,859.771858 360.591705,864.888107 L360.591705,911.861788 L343.809367,911.861788 L343.809367,819.432427 L360.423038,819.432427 L360.423038,835.371432 C365.201952,829.580512 370.683566,825.082778 376.868043,821.878095 C383.05252,818.673411 390.305116,817.071093 398.626049,817.071093 C407.34054,817.071093 414.536915,818.79991 420.215389,822.257595 C425.893864,825.71528 429.688827,830.59251 431.600392,836.889432 C434.299073,833.516081 437.110157,830.578499 440.033728,828.076596 C442.957299,825.574694 446.035436,823.508548 449.268231,821.878095 C452.501026,820.247642 455.930548,819.038875 459.556901,818.25176 C463.183253,817.464645 467.048494,817.071093 471.152738,817.071093 Z M273.728346,831.913764 C268.443429,831.913764 263.692697,832.700868 259.476008,834.275098 C255.259319,835.849329 251.661132,838.08414 248.681338,840.9796 C245.701545,843.87506 243.410512,847.417026 241.80817,851.605603 C240.205828,855.794181 239.404669,860.502747 239.404669,865.731441 C239.404669,870.960135 240.205828,875.654645 241.80817,879.815112 C243.410512,883.975578 245.701545,887.517544 248.681338,890.441115 C251.661132,893.364686 255.259319,895.599498 259.476008,897.145617 C263.692697,898.691736 268.443429,899.464784 273.728346,899.464784 C279.013263,899.464784 283.763994,898.691736 287.980683,897.145617 C292.197372,895.599498 295.781504,893.364686 298.733187,890.441115 C301.684869,887.517544 303.961847,883.975578 305.564189,879.815112 C307.16653,875.654645 307.967689,870.960135 307.967689,865.731441 C307.967689,860.502747 307.16653,855.794181 305.564189,851.605603 C303.961847,847.417026 301.684869,843.87506 298.733187,840.9796 C295.781504,838.08414 292.197372,835.849329 287.980683,834.275098 C283.763994,832.700868 279.013263,831.913764 273.728346,831.913764 Z M575.979102,831.913764 C571.593745,831.913764 567.55984,832.490036 563.877265,833.642598 C560.19469,834.79516 556.933833,836.453699 554.094595,838.618266 C551.255358,840.782833 548.922159,843.425252 547.094927,846.545602 C545.267695,849.665952 544.016762,853.193862 543.342092,857.129438 L608.447445,857.129438 C607.772775,853.250084 606.535898,849.750285 604.736777,846.629935 C602.937656,843.509585 600.646623,840.853111 597.863608,838.660433 C595.080594,836.467755 591.847847,834.79516 588.165272,833.642598 C584.482697,832.490036 580.420681,831.913764 575.979102,831.913764 Z" id="Some" fill="#164E63"></path>
        <g id="Rabbit-Ears-Copy" transform="translate(828.000000, 183.000000)" fill="#164E63">
            <path d="M16.475258,0.458547609 C18.8714993,-0.924922932 21.9288842,-0.105776733 23.3092986,2.28517107 L23.3092986,2.28517107 L142.287056,208.359666 C169.298456,194.896208 199.764228,187.322835 232,187.322835 C264.236168,187.322835 294.702293,194.896394 321.713939,208.360162 L440.690701,2.28517107 C442.066952,-0.0985640643 445.13082,-0.923583914 447.524742,0.458547609 L447.524742,0.458547609 L461.475479,8.51300926 C463.87172,9.8964798 464.691011,12.9538259 463.310597,15.3447737 L463.310597,15.3447737 L344.283707,221.50676 C397.962178,257.631538 433.271523,318.927239 433.271523,388.464567 L433.271523,388.464567 L30.7284768,388.464567 C30.7284768,318.927239 66.0378224,257.631538 119.716293,221.50676 L0.68940329,15.3447737 C-0.686846832,12.9610386 0.130599226,9.89514078 2.52452125,8.51300926 L2.52452125,8.51300926 Z" id="Set-box"></path>
        </g>
    </g>
</svg>